<?xml version="1.0" encoding="UTF-8" standalone="no"?>
<svg
   width="17.91921"
   height="18.144129"
   version="1.1"
   id="svg9"
   sodipodi:docname="Instagram_logo_2016.svg"
   inkscape:export-filename="../../../../../../../../Downloads/Instagram_logo_18.svg"
   inkscape:export-xdpi="96.432823"
   inkscape:export-ydpi="96.432823"
   inkscape:version="1.3 (0e150ed, 2023-07-21)"
   xmlns:inkscape="http://www.inkscape.org/namespaces/inkscape"
   xmlns:sodipodi="http://sodipodi.sourceforge.net/DTD/sodipodi-0.dtd"
   xmlns:xlink="http://www.w3.org/1999/xlink"
   xmlns="http://www.w3.org/2000/svg"
   xmlns:svg="http://www.w3.org/2000/svg">
  <sodipodi:namedview
     id="namedview9"
     pagecolor="#ffffff"
     bordercolor="#000000"
     borderopacity="0.25"
     inkscape:showpageshadow="2"
     inkscape:pageopacity="0.0"
     inkscape:pagecheckerboard="0"
     inkscape:deskcolor="#d1d1d1"
     inkscape:zoom="9.9638985"
     inkscape:cx="18.56703"
     inkscape:cy="16.007791"
     inkscape:window-width="1312"
     inkscape:window-height="838"
     inkscape:window-x="0"
     inkscape:window-y="0"
     inkscape:window-maximized="0"
     inkscape:current-layer="svg9" />
  <defs
     id="defs7">
    <linearGradient
       id="b">
      <stop
         offset="0"
         stop-color="#3771c8"
         id="stop1" />
      <stop
         stop-color="#3771c8"
         offset=".128"
         id="stop2" />
      <stop
         offset="1"
         stop-color="#60f"
         stop-opacity="0"
         id="stop3" />
    </linearGradient>
    <linearGradient
       id="a">
      <stop
         offset="0"
         stop-color="#fd5"
         id="stop4" />
      <stop
         offset=".1"
         stop-color="#fd5"
         id="stop5" />
      <stop
         offset=".5"
         stop-color="#ff543e"
         id="stop6" />
      <stop
         offset="1"
         stop-color="#c837ab"
         id="stop7" />
    </linearGradient>
    <radialGradient
       id="c"
       cx="158.429"
       cy="578.08801"
       r="65"
       xlink:href="#a"
       gradientUnits="userSpaceOnUse"
       gradientTransform="matrix(0,-0.27437641,0.25526124,0,-142.88562,62.947015)"
       fx="158.429"
       fy="578.08801" />
    <radialGradient
       id="d"
       cx="147.694"
       cy="473.45499"
       r="65"
       xlink:href="#b"
       gradientUnits="userSpaceOnUse"
       gradientTransform="matrix(0.02407947,0.1202617,-0.49584832,0.09928318,228.08694,-63.374974)"
       fx="147.694"
       fy="473.45499" />
  </defs>
  <path
     fill="url(#c)"
     d="m 8.8995084,0.09673909 c -3.757417,0 -4.8563181,0.0038762 -5.069924,0.0215959 -0.7710858,0.0640957 -1.2509033,0.1855036 -1.7736359,0.4457624 -0.4028473,0.2000393 -0.7205568,0.4319188 -1.0341132,0.75696541 -0.57104646,0.5927808 -0.91713526,1.3220591 -1.04241936,2.1889423 -0.0609117,0.420844 -0.0786314,0.506674 -0.0822307,2.6563007 -0.001384,0.7165421 0,1.6595649 0,2.92445 0,3.7543712 0.00415,4.8521642 0.02215,5.0653552 0.062296,0.750321 0.1799661,1.222386 0.4291501,1.73875 0.4762181,0.98843 1.38573936,1.730444 2.45723036,2.007315 0.371007,0.09552 0.7807762,0.148126 1.3068312,0.173044 0.2228811,0.0097 2.4946078,0.01661 4.767719,0.01661 2.2731101,0 4.5462211,-0.0028 4.7635651,-0.01384 0.609116,-0.02866 0.962819,-0.07614 1.353899,-0.177197 1.078413,-0.278255 1.971322,-1.009195 2.457231,-2.011468 0.244338,-0.503906 0.368238,-0.993967 0.424304,-1.70511 0.01218,-0.155048 0.0173,-2.627091 0.0173,-5.0958116 0,-2.4691356 -0.0055,-4.9366102 -0.01772,-5.0916581 C 17.822092,3.2741109 17.698192,2.7882022 17.445962,2.2746066 17.239001,1.8541779 17.009198,1.5402062 16.675569,1.2191742 16.080158,0.65048119 15.351987,0.30439239 14.484273,0.17924669 14.063844,0.11847349 13.980091,0.10047689 11.828803,0.09673909 Z"
     id="path7"
     style="fill:url(#c);stroke-width:0.138435" />
  <path
     fill="url(#d)"
     d="m 8.8995084,0.09673909 c -3.757417,0 -4.8563181,0.0038762 -5.069924,0.0215959 -0.7710858,0.0640957 -1.2509033,0.1855036 -1.7736359,0.4457624 -0.4028473,0.2000393 -0.7205568,0.4319188 -1.0341132,0.75696541 -0.57104646,0.5927808 -0.91713526,1.3220591 -1.04241936,2.1889423 -0.0609117,0.420844 -0.0786314,0.506674 -0.0822307,2.6563007 -0.001384,0.7165421 0,1.6595649 0,2.92445 0,3.7543712 0.00415,4.8521642 0.02215,5.0653552 0.062296,0.750321 0.1799661,1.222386 0.4291501,1.73875 0.4762181,0.98843 1.38573936,1.730444 2.45723036,2.007315 0.371007,0.09552 0.7807762,0.148126 1.3068312,0.173044 0.2228811,0.0097 2.4946078,0.01661 4.767719,0.01661 2.2731101,0 4.5462211,-0.0028 4.7635651,-0.01384 0.609116,-0.02866 0.962819,-0.07614 1.353899,-0.177197 1.078413,-0.278255 1.971322,-1.009195 2.457231,-2.011468 0.244338,-0.503906 0.368238,-0.993967 0.424304,-1.70511 0.01218,-0.155048 0.0173,-2.627091 0.0173,-5.0958116 0,-2.4691356 -0.0055,-4.9366102 -0.01772,-5.0916581 C 17.822092,3.2741109 17.698192,2.7882022 17.445962,2.2746066 17.239001,1.8541779 17.009198,1.5402062 16.675569,1.2191742 16.080158,0.65048119 15.351987,0.30439239 14.484273,0.17924669 14.063844,0.11847349 13.980091,0.10047689 11.828803,0.09673909 Z"
     id="path8"
     style="fill:url(#d);stroke-width:0.138435" />
  <path
     fill="#ffffff"
     d="m 8.8953551,2.4501427 c -1.8046455,0 -2.0311258,0.00789 -2.7399157,0.040146 C 5.4480339,2.522683 4.9651707,2.6346773 4.5426657,2.7990003 4.1056247,2.9687223 3.7348944,3.1957564 3.3655485,3.5652409 2.9959256,3.9345868 2.7688915,4.3053171 2.5986157,4.7422196 2.4338774,5.1648632 2.3217448,5.6478648 2.2899045,6.3549933 c -0.031702,0.7087898 -0.040008,0.9354088 -0.040008,2.740054 0,1.8046457 0.00803,2.0304337 0.040146,2.7392237 0.032532,0.707405 0.1445267,1.190268 0.308711,1.612774 0.1698605,0.43704 0.3968948,0.807771 0.766379,1.177117 0.3692076,0.369622 0.7399379,0.59721 1.176702,0.766932 0.422782,0.164323 0.9057835,0.276318 1.6130506,0.308712 0.7087896,0.03225 0.9351319,0.04015 2.7396387,0.04015 1.8047842,0 2.0305722,-0.0079 2.7393622,-0.04015 0.707405,-0.03239 1.190822,-0.144389 1.613604,-0.308712 0.436903,-0.169722 0.807079,-0.39731 1.176287,-0.766932 0.369623,-0.369346 0.596657,-0.740077 0.766932,-1.176979 0.163354,-0.422644 0.275487,-0.905645 0.308712,-1.612774 0.03184,-0.70879 0.04015,-0.934716 0.04015,-2.7393617 0,-1.8046452 -0.0083,-2.0311258 -0.04015,-2.7399157 C 15.466196,5.6477261 15.354063,5.1648632 15.190709,4.7423579 15.020434,4.3053171 14.7934,3.9345868 14.423777,3.5652409 14.054154,3.195618 13.684531,2.9685837 13.247075,2.7990003 12.823462,2.6346773 12.340322,2.522683 11.632917,2.490289 10.924127,2.4580336 10.698477,2.4501427 8.8932784,2.4501427 Z M 8.2992516,3.6476099 c 0.1769207,-2.844e-4 0.3743297,0 0.5961035,0 1.7741889,0 1.9844729,0.00637 2.6850949,0.038208 0.647878,0.029625 0.999504,0.1378818 1.233737,0.228834 0.310096,0.1204389 0.531177,0.2644116 0.76361,0.4969834 0.232572,0.2325715 0.376545,0.4540683 0.497261,0.764164 0.09095,0.2339561 0.199347,0.5855822 0.228834,1.2334604 0.03184,0.7004836 0.03876,0.9109057 0.03876,2.6842646 0,1.7733587 -0.0069,1.9837807 -0.03876,2.6842647 -0.02962,0.647878 -0.137882,0.999505 -0.228834,1.23346 -0.120439,0.310096 -0.264689,0.530901 -0.497261,0.763334 -0.232571,0.232572 -0.453376,0.376545 -0.76361,0.496983 -0.233956,0.09137 -0.585859,0.199348 -1.233737,0.228973 -0.700484,0.03184 -0.910906,0.03876 -2.6850949,0.03876 -1.7743282,0 -1.9846116,-0.0069 -2.6850952,-0.03876 C 5.5623816,14.470637 5.2107553,14.36238 4.9763841,14.271428 4.6662885,14.150989 4.4447916,14.007016 4.2122201,13.774444 3.9796483,13.541873 3.8356756,13.32093 3.7149597,13.010696 3.6240075,12.77674 3.5156126,12.425114 3.4861257,11.777235 3.4542857,11.076752 3.4479177,10.86633 3.4479177,9.0918635 c 0,-1.7744665 0.00637,-1.983781 0.038208,-2.6842646 C 3.515751,5.7597207 3.6240075,5.4080944 3.7149597,5.1738615 3.8353986,4.8637659 3.9796483,4.642269 4.2122201,4.4096975 4.4447916,4.1771257 4.6662885,4.033153 4.9763841,3.9124371 5.210617,3.8210696 5.5623816,3.71309 6.2102599,3.6833264 6.8232523,3.6556392 7.0608076,3.6473332 8.2992516,3.6459489 Z m 4.1430974,1.103331 c -0.440225,0 -0.797388,0.3567484 -0.797388,0.7971117 0,0.4402251 0.357163,0.7973887 0.797388,0.7973887 0.440225,0 0.797389,-0.3571636 0.797389,-0.7973887 0,-0.4402249 -0.357164,-0.7973884 -0.797389,-0.7973884 z m -3.5469939,0.931671 c -1.8845227,0 -3.4124354,1.5279129 -3.4124354,3.4124354 0,1.8845227 1.5279127,3.4117437 3.4124354,3.4117437 1.8845219,0 3.4118809,-1.527221 3.4118809,-3.4117437 0,-1.8845225 -1.527497,-3.4124354 -3.4120195,-3.4124354 z m 0,1.1974673 c 1.2232159,0 2.2149679,0.9916136 2.2149679,2.2149681 0,1.2232157 -0.991752,2.2149687 -2.2149679,2.2149687 -1.2233547,0 -2.2149684,-0.991753 -2.2149684,-2.2149687 0,-1.2233545 0.9916137,-2.2149681 2.2149684,-2.2149681 z"
     id="path9"
     style="stroke-width:0.138435" />
</svg>
